<svg id="visual" viewBox="0 0 900 450" width="900" height="450" xmlns="http://www.w3.org/2000/svg" xmlns:xlink="http://www.w3.org/1999/xlink" version="1.1"><rect x="0" y="0" width="900" height="450" fill="#09182c"></rect><path d="M0 373L21.5 371C43 369 86 365 128.8 364.3C171.7 363.7 214.3 366.3 257.2 363.7C300 361 343 353 385.8 353.3C428.7 353.7 471.3 362.3 514.2 361.5C557 360.7 600 350.3 642.8 348C685.7 345.7 728.3 351.3 771.2 356.7C814 362 857 367 878.5 369.5L900 372L900 451L878.5 451C857 451 814 451 771.2 451C728.3 451 685.7 451 642.8 451C600 451 557 451 514.2 451C471.3 451 428.7 451 385.8 451C343 451 300 451 257.2 451C214.3 451 171.7 451 128.8 451C86 451 43 451 21.5 451L0 451Z" fill="#62ffdc"></path><path d="M0 359L21.5 362.7C43 366.3 86 373.7 128.8 377C171.7 380.3 214.3 379.7 257.2 379.8C300 380 343 381 385.8 383.3C428.7 385.7 471.3 389.3 514.2 388.2C557 387 600 381 642.8 381.2C685.7 381.3 728.3 387.7 771.2 386.5C814 385.3 857 376.7 878.5 372.3L900 368L900 451L878.5 451C857 451 814 451 771.2 451C728.3 451 685.7 451 642.8 451C600 451 557 451 514.2 451C471.3 451 428.7 451 385.8 451C343 451 300 451 257.2 451C214.3 451 171.7 451 128.8 451C86 451 43 451 21.5 451L0 451Z" fill="#00e1fa"></path><path d="M0 401L21.5 401.2C43 401.3 86 401.7 128.8 399C171.7 396.3 214.3 390.7 257.2 391.5C300 392.3 343 399.7 385.8 401C428.7 402.3 471.3 397.7 514.2 397.8C557 398 600 403 642.8 406C685.7 409 728.3 410 771.2 406.5C814 403 857 395 878.5 391L900 387L900 451L878.5 451C857 451 814 451 771.2 451C728.3 451 685.7 451 642.8 451C600 451 557 451 514.2 451C471.3 451 428.7 451 385.8 451C343 451 300 451 257.2 451C214.3 451 171.7 451 128.8 451C86 451 43 451 21.5 451L0 451Z" fill="#00bbff"></path><path d="M0 424L21.5 424C43 424 86 424 128.8 423.5C171.7 423 214.3 422 257.2 423C300 424 343 427 385.8 426.2C428.7 425.3 471.3 420.7 514.2 421C557 421.3 600 426.7 642.8 427.5C685.7 428.3 728.3 424.7 771.2 424.2C814 423.7 857 426.3 878.5 427.7L900 429L900 451L878.5 451C857 451 814 451 771.2 451C728.3 451 685.7 451 642.8 451C600 451 557 451 514.2 451C471.3 451 428.7 451 385.8 451C343 451 300 451 257.2 451C214.3 451 171.7 451 128.8 451C86 451 43 451 21.5 451L0 451Z" fill="#d062ff"></path></svg>